<svg width="31" height="30" viewBox="0 0 31 30" fill="none" xmlns="http://www.w3.org/2000/svg">
<circle cx="15.7148" cy="15" r="15" fill="#F2F5A5"/>
<g clip-path="url(#clip0_5082_10119)">
<path d="M10.2056 12.4062H11.363L15.0673 14.0269C15.5794 14.251 15.815 14.8462 15.5947 15.3601L15.5254 15.5218C15.304 16.0384 14.7058 16.2777 14.1892 16.0563L13.0991 15.5891" stroke="#213502" stroke-width="0.763244" stroke-linecap="round" stroke-linejoin="round"/>
<path d="M10.3762 17.2737C10.1877 17.1794 9.95849 17.2558 9.86423 17.4444C9.76998 17.6329 9.84639 17.8621 10.0349 17.9564L10.3762 17.2737ZM15.5846 15.5376L15.2432 15.3669L14.9019 16.0496L15.2432 16.2202L15.5846 15.5376ZM17.0841 16.714L16.9134 17.0553L17.0841 16.714ZM18.4494 17.4179H19.6046V16.6547H18.4494V17.4179ZM20.2406 18.054V18.3335H21.0039V18.054H20.2406ZM19.6046 18.9695H14.6387V19.7328H19.6046V18.9695ZM12.989 18.58L10.3762 17.2737L10.0349 17.9564L12.6476 19.2627L12.989 18.58ZM17.2548 16.3727L15.5846 15.5376L15.2432 16.2202L16.9134 17.0553L17.2548 16.3727ZM14.6387 18.9695C14.066 18.9695 13.5012 18.8362 12.989 18.58L12.6476 19.2627C13.2658 19.5718 13.9475 19.7328 14.6387 19.7328V18.9695ZM20.2406 18.3335C20.2406 18.6847 19.9558 18.9695 19.6046 18.9695V19.7328C20.3774 19.7328 21.0039 19.1063 21.0039 18.3335H20.2406ZM19.6046 17.4179C19.9558 17.4179 20.2406 17.7027 20.2406 18.054H21.0039C21.0039 17.2812 20.3774 16.6547 19.6046 16.6547V17.4179ZM18.4494 16.6547C18.0347 16.6547 17.6257 16.5581 17.2548 16.3727L16.9134 17.0553C17.3903 17.2938 17.9162 17.4179 18.4494 17.4179V16.6547Z" fill="#213502"/>
<path d="M16.3446 12.704L18.0914 14.8875C18.4988 15.3967 19.2733 15.3967 19.6807 14.8875L21.4275 12.704C21.6554 12.4191 21.7796 12.0651 21.7796 11.7003V11.6283C21.7796 10.7808 21.0926 10.0938 20.2451 10.0938H20.073C19.7762 10.0938 19.4916 10.2116 19.2817 10.4215C19.0632 10.64 18.7089 10.64 18.4904 10.4215C18.2806 10.2116 17.996 10.0938 17.6992 10.0938H17.5271C16.6796 10.0938 15.9926 10.7808 15.9926 11.6283V11.7003C15.9926 12.0651 16.1167 12.4191 16.3446 12.704Z" fill="#213502"/>
</g>
<defs>
<clipPath id="clip0_5082_10119">
<rect width="13.8889" height="13.8889" fill="white" transform="translate(9.0481 7.77734)"/>
</clipPath>
</defs>
</svg>
