<svg width="52" height="51" viewBox="0 0 52 51" fill="none" xmlns="http://www.w3.org/2000/svg">
<g clip-path="url(#clip0_4713_8395)">
<path d="M40.5996 8.5H38.2621C37.7689 6.10175 36.464 3.94686 34.5673 2.39853C32.6706 0.850191 30.298 0.00309086 27.8496 0L23.5996 0C21.1512 0.00309086 18.7787 0.850191 16.882 2.39853C14.9852 3.94686 13.6803 6.10175 13.1871 8.5H10.8496C8.03272 8.50337 5.33217 9.62387 3.34033 11.6157C1.34848 13.6076 0.227984 16.3081 0.224609 19.125L0.224609 25.5H51.2246V19.125C51.2212 16.3081 50.1007 13.6076 48.1089 11.6157C46.1171 9.62387 43.4165 8.50337 40.5996 8.5ZM17.6156 8.5C18.0535 7.26132 18.8635 6.18819 19.9346 5.42744C21.0058 4.66668 22.2858 4.25545 23.5996 4.25H27.8496C29.1634 4.25545 30.4434 4.66668 31.5146 5.42744C32.5857 6.18819 33.3957 7.26132 33.8336 8.5H17.6156Z" fill="#198F8F"/>
<path d="M27.8497 31.875C27.8497 32.4386 27.6258 32.9791 27.2273 33.3776C26.8288 33.7761 26.2883 34 25.7247 34C25.1611 34 24.6206 33.7761 24.2221 33.3776C23.8236 32.9791 23.5997 32.4386 23.5997 31.875V29.75H0.224697V40.375C0.228071 43.1919 1.34857 45.8924 3.34041 47.8843C5.33226 49.8761 8.03281 50.9966 10.8497 51H40.5997C43.4166 50.9966 46.1171 49.8761 48.109 47.8843C50.1008 45.8924 51.2213 43.1919 51.2247 40.375V29.75H27.8497V31.875Z" fill="#198F8F"/>
</g>
<defs>
<clipPath id="clip0_4713_8395">
<rect width="51" height="51" fill="white" transform="translate(0.224609)"/>
</clipPath>
</defs>
</svg>
