<svg width="52" height="51" viewBox="0 0 52 51" fill="none" xmlns="http://www.w3.org/2000/svg">
<g clipPath="url(#clip0_4713_8407)">
<path d="M23.9873 19.4799C23.9873 19.4799 13.3623 11.9637 13.3623 5.84375C13.2953 4.36522 13.8166 2.92032 14.8122 1.82517C15.8078 0.730024 17.1966 0.0737767 18.6748 0C20.153 0.0737767 21.5418 0.730024 22.5374 1.82517C23.533 2.92032 24.0543 4.36522 23.9873 5.84375C23.9203 4.36522 24.4416 2.92032 25.4372 1.82517C26.4328 0.730024 27.8216 0.0737767 29.2998 0C30.778 0.0737767 32.1668 0.730024 33.1624 1.82517C34.158 2.92032 34.6793 4.36522 34.6123 5.84375C34.6123 11.9637 23.9873 19.4799 23.9873 19.4799ZM49.8018 18.4471C48.7211 17.4611 47.2942 16.9427 45.8326 17.0052C44.371 17.0677 42.9935 17.706 42.0009 18.7808L34.4742 26.7219C34.5557 27.1695 34.6019 27.6228 34.6123 28.0776C34.6033 30.2302 33.8228 32.3081 32.4125 33.9343C31.0023 35.5606 29.0557 36.6273 26.9262 36.941L17.9141 38.2287L17.3106 34.0213L26.3248 32.725C27.4915 32.545 28.5479 31.9328 29.2841 31.01C30.0203 30.0872 30.3824 28.9212 30.2987 27.7437C30.2149 26.5661 29.6913 25.4632 28.8319 24.6538C27.9725 23.8445 26.8401 23.388 25.6597 23.375H6.9873C5.29655 23.375 3.67504 24.0466 2.4795 25.2422C1.28395 26.4377 0.612305 28.0592 0.612305 29.75L0.612305 44.625C0.612305 46.3158 1.28395 47.9373 2.4795 49.1328C3.67504 50.3284 5.29655 51 6.9873 51H27.5233L50.2056 26.2331C51.1731 25.1418 51.673 23.714 51.5974 22.2575C51.5219 20.801 50.877 19.4325 49.8018 18.4471Z" fill="#F7A145"/>
</g>
<defs>
<clipPath id="clip0_4713_8407">
<rect width="51" height="51" fill="white" transform="translate(0.612305)"/>
</clipPath>
</defs>
</svg>
