<svg width="14" height="14" viewBox="0 0 14 14" fill="none" xmlns="http://www.w3.org/2000/svg">
<path d="M1.5728 5.29297H2.65305L6.04868 6.77856C6.56086 7.00264 6.79638 7.59792 6.57616 8.11177L6.56472 8.13846C6.34333 8.65505 5.74507 8.89435 5.22847 8.67296L4.27342 8.26365" stroke="#213502" strokeWidth="0.763244" strokeLinecap="round" strokeLinejoin="round"/>
<path d="M1.74347 9.81419C1.55495 9.71994 1.32572 9.79635 1.23147 9.98486C1.13721 10.1734 1.21362 10.4026 1.40213 10.4969L1.74347 9.81419ZM6.60458 8.19382L6.26324 8.02316L5.92191 8.70582L6.26324 8.87649L6.60458 8.19382ZM9.31511 9.99703H10.2774V9.23378H9.31511V9.99703ZM10.9134 10.6331V10.7582H11.6766V10.6331H10.9134ZM10.2774 11.3943H5.77449V12.1575H10.2774V11.3943ZM4.12471 11.0048L1.74347 9.81419L1.40213 10.4969L3.78338 11.6875L4.12471 11.0048ZM8.12045 8.95176L6.60458 8.19382L6.26324 8.87649L7.77912 9.63443L8.12045 8.95176ZM5.77449 11.3943C5.20179 11.3943 4.63695 11.2609 4.12471 11.0048L3.78338 11.6875C4.4016 11.9966 5.0833 12.1575 5.77449 12.1575V11.3943ZM10.9134 10.7582C10.9134 11.1095 10.6286 11.3943 10.2774 11.3943V12.1575C11.0502 12.1575 11.6766 11.531 11.6766 10.7582H10.9134ZM10.2774 9.99703C10.6286 9.99703 10.9134 10.2818 10.9134 10.6331H11.6766C11.6766 9.86026 11.0502 9.23378 10.2774 9.23378V9.99703ZM9.31511 9.23378C8.9004 9.23378 8.49138 9.13722 8.12045 8.95176L7.77912 9.63443C8.25603 9.87288 8.78191 9.99703 9.31511 9.99703V9.23378Z" fill="#213502"/>
<path d="M7.30262 5.569L8.88 7.54072C9.28739 8.04997 10.0619 8.04997 10.4693 7.54072L12.0467 5.569C12.2594 5.30313 12.3753 4.97278 12.3753 4.63229V4.56503C12.3753 3.77404 11.734 3.13281 10.9431 3.13281H10.7824C10.5054 3.13281 10.2398 3.24285 10.0439 3.43871C9.83998 3.64265 9.50933 3.64265 9.3054 3.43871C9.10954 3.24285 8.84389 3.13281 8.56689 3.13281H8.40626C7.61526 3.13281 6.97404 3.77404 6.97404 4.56503V4.63229C6.97404 4.97278 7.08992 5.30313 7.30262 5.569Z" fill="#213502"/>
</svg>
