<svg width="52" height="51" viewBox="0 0 52 51" fill="none" xmlns="http://www.w3.org/2000/svg">
<g clip-path="url(#clip0_4713_8384)">
<path d="M48.7548 23.3778H34.3877V8.50277H36.6189C38.2629 8.50424 39.8713 8.98158 41.2499 9.87715C42.6285 10.7727 43.7184 12.0482 44.3879 13.5496L48.7548 23.3778ZM51.3877 32.0095V40.3778H0.387695V14.8778C0.387695 13.187 1.05935 11.5655 2.25489 10.37C3.45043 9.17442 5.07194 8.50277 6.7627 8.50277H21.6377L23.2463 2.06402C23.3932 1.47459 23.733 0.951221 24.2116 0.5772C24.6903 0.203178 25.2802 0 25.8877 0C26.4951 0 27.0851 0.203178 27.5638 0.5772C28.0424 0.951221 28.3822 1.47459 28.5291 2.06402L30.1377 8.50277V27.6278H50.5951C51.1163 29.03 51.3847 30.5136 51.3877 32.0095ZM21.6377 23.3778H17.3877V19.1278H13.1377V23.3778H8.8877V27.6278H13.1377V31.8778H17.3877V27.6278H21.6377V23.3778ZM6.88595 44.6278C6.8081 44.9767 6.7668 45.3328 6.7627 45.6903C6.7627 47.0992 7.3224 48.4505 8.31869 49.4468C9.31498 50.4431 10.6662 51.0028 12.0752 51.0028C13.4842 51.0028 14.8354 50.4431 15.8317 49.4468C16.828 48.4505 17.3877 47.0992 17.3877 45.6903C17.3836 45.3328 17.3423 44.9767 17.2644 44.6278H6.88595ZM36.6359 44.6278C36.5581 44.9767 36.5168 45.3328 36.5127 45.6903C36.5127 47.0992 37.0724 48.4505 38.0687 49.4468C39.065 50.4431 40.4162 51.0028 41.8252 51.0028C43.2342 51.0028 44.5854 50.4431 45.5817 49.4468C46.578 48.4505 47.1377 47.0992 47.1377 45.6903C47.1336 45.3328 47.0923 44.9767 47.0144 44.6278H36.6359Z" fill="#9E55D7"/>
</g>
<defs>
<clipPath id="clip0_4713_8384">
<rect width="51" height="51" fill="white" transform="translate(0.387695)"/>
</clipPath>
</defs>
</svg>
