<svg width="52" height="53" viewBox="0 0 52 53" fill="none" xmlns="http://www.w3.org/2000/svg">
<g clipPath="url(#clip0_4713_8430)">
<path d="M41.0446 11.7232H34.5725V9.56582C34.5725 7.84932 33.8906 6.20312 32.6769 4.98938C31.4631 3.77563 29.8169 3.09375 28.1004 3.09375H23.7857C22.0692 3.09375 20.423 3.77563 19.2093 4.98938C17.9955 6.20312 17.3137 7.84932 17.3137 9.56582V11.7232H10.8416C7.98181 11.7266 5.24014 12.8642 3.21797 14.8863C1.1958 16.9085 0.0582351 19.6502 0.0548096 22.51L0.0548096 39.7688C0.0582351 42.6286 1.1958 45.3703 3.21797 47.3924C5.24014 49.4146 7.98181 50.5522 10.8416 50.5556H41.0446C43.9044 50.5522 46.646 49.4146 48.6682 47.3924C50.6904 45.3703 51.8279 42.6286 51.8314 39.7688V22.51C51.8279 19.6502 50.6904 16.9085 48.6682 14.8863C46.646 12.8642 43.9044 11.7266 41.0446 11.7232ZM21.6284 9.56582C21.6284 8.99365 21.8557 8.44492 22.2602 8.04034C22.6648 7.63576 23.2136 7.40846 23.7857 7.40846H28.1004C28.6726 7.40846 29.2213 7.63576 29.6259 8.04034C30.0305 8.44492 30.2578 8.99365 30.2578 9.56582V11.7232H21.6284V9.56582ZM32.4151 33.2967H28.1004V37.6115C28.1004 38.1836 27.8731 38.7324 27.4686 39.1369C27.064 39.5415 26.5152 39.7688 25.9431 39.7688C25.3709 39.7688 24.8222 39.5415 24.4176 39.1369C24.013 38.7324 23.7857 38.1836 23.7857 37.6115V33.2967H19.471C18.8988 33.2967 18.3501 33.0694 17.9455 32.6649C17.541 32.2603 17.3137 31.7116 17.3137 31.1394C17.3137 30.5672 17.541 30.0185 17.9455 29.6139C18.3501 29.2093 18.8988 28.982 19.471 28.982H23.7857V24.6673C23.7857 24.0951 24.013 23.5464 24.4176 23.1418C24.8222 22.7373 25.3709 22.51 25.9431 22.51C26.5152 22.51 27.064 22.7373 27.4686 23.1418C27.8731 23.5464 28.1004 24.0951 28.1004 24.6673V28.982H32.4151C32.9873 28.982 33.536 29.2093 33.9406 29.6139C34.3452 30.0185 34.5725 30.5672 34.5725 31.1394C34.5725 31.7116 34.3452 32.2603 33.9406 32.6649C33.536 33.0694 32.9873 33.2967 32.4151 33.2967Z" fill="#5D94D6"/>
</g>
<defs>
<clipPath id="clip0_4713_8430">
<rect width="51.7765" height="51.7765" fill="white" transform="translate(0.0548096 0.941406)"/>
</clipPath>
</defs>
</svg>
