<svg width="30" height="30" viewBox="0 0 30 30" fill="none" xmlns="http://www.w3.org/2000/svg">
<circle cx="15" cy="15" r="15" fill="#E0FAFF"/>
<path d="M9.49072 12.4102H10.6481L14.2721 13.9956C14.8287 14.2392 15.0847 14.8861 14.8454 15.4445V15.4445C14.6048 16.006 13.9546 16.266 13.3932 16.0254L12.3842 15.593" stroke="#4591A1" stroke-width="0.833333" stroke-linecap="round" stroke-linejoin="round"/>
<path d="M9.67706 17.2462C9.47124 17.1433 9.22096 17.2268 9.11804 17.4326C9.01513 17.6384 9.09856 17.8887 9.30438 17.9916L9.67706 17.2462ZM14.8854 15.5101L14.5127 15.3238L14.14 16.0692L14.5127 16.2555L14.8854 15.5101ZM16.3101 16.6883L16.1237 17.061L16.3101 16.6883ZM17.8008 17.4569H18.7963V16.6236H17.8008V17.4569ZM19.4907 18.1513V18.2439H20.3241V18.1513H19.4907ZM18.7963 18.9384H14.0121V19.7717H18.7963V18.9384ZM12.2109 18.5131L9.67706 17.2462L9.30438 17.9916L11.8382 19.2585L12.2109 18.5131ZM16.4964 16.3156L14.8854 15.5101L14.5127 16.2555L16.1237 17.061L16.4964 16.3156ZM14.0121 18.9384C13.3868 18.9384 12.7701 18.7928 12.2109 18.5131L11.8382 19.2585C12.5132 19.596 13.2575 19.7717 14.0121 19.7717V18.9384ZM19.4907 18.2439C19.4907 18.6275 19.1798 18.9384 18.7963 18.9384V19.7717C19.64 19.7717 20.3241 19.0877 20.3241 18.2439H19.4907ZM18.7963 17.4569C19.1798 17.4569 19.4907 17.7678 19.4907 18.1513H20.3241C20.3241 17.3076 19.64 16.6236 18.7963 16.6236V17.4569ZM17.8008 16.6236C17.348 16.6236 16.9014 16.5181 16.4964 16.3156L16.1237 17.061C16.6444 17.3213 17.2186 17.4569 17.8008 17.4569V16.6236Z" fill="#4591A1"/>
<path d="M15.6298 12.7079L17.3036 14.8002C17.7484 15.3562 18.5941 15.3562 19.0389 14.8002L20.7127 12.7079C20.9406 12.423 21.0647 12.069 21.0647 11.7042V11.6322C21.0647 10.7847 20.3777 10.0977 19.5302 10.0977H19.3581C19.0613 10.0977 18.7767 10.2156 18.5669 10.4254C18.3484 10.6439 17.9941 10.6439 17.7756 10.4254C17.5657 10.2156 17.2811 10.0977 16.9843 10.0977H16.8122C15.9647 10.0977 15.2777 10.7847 15.2777 11.6322V11.7042C15.2777 12.069 15.4019 12.423 15.6298 12.7079Z" fill="#4591A1"/>
</svg>
