<svg width="52" height="51" viewBox="0 0 52 51" fill="none" xmlns="http://www.w3.org/2000/svg">
<g clip-path="url(#clip0_4713_8418)">
<path d="M14.0162 38.2495C11.566 38.2495 9.12016 37.4994 7.05041 36.0268L2.64104 32.8903C1.68904 32.2145 1.04729 31.1648 0.881539 30.0152C0.724289 28.9335 0.996289 27.8817 1.64866 27.0487C2.74941 25.6419 4.60029 25.1043 6.25779 25.7099L13.1577 28.2429L44.2995 13.2383C46.96 12.0079 50.1157 13.1745 51.3439 15.8308C52.5722 18.4828 51.4247 21.6639 48.7875 22.924L19.1459 37.0914C17.5203 37.867 15.7693 38.2495 14.0162 38.2495ZM51.8369 48.8745C51.8369 47.6994 50.8849 46.7495 49.7119 46.7495H2.96191C1.78891 46.7495 0.836914 47.6994 0.836914 48.8745C0.836914 50.0497 1.78891 50.9995 2.96191 50.9995H49.7119C50.8849 50.9995 51.8369 50.0497 51.8369 48.8745ZM19.1417 20.6439L30.657 15.0955L18.2279 7.42003C16.6682 6.2619 14.6005 6.0494 12.8262 6.86753L11.1665 7.6474C10.1933 8.10428 9.52179 9.01378 9.36879 10.0784C9.21579 11.1452 9.60466 12.2055 10.41 12.9195L19.1395 20.646L19.1417 20.6439Z" fill="#618F19"/>
</g>
<defs>
<clipPath id="clip0_4713_8418">
<rect width="51" height="51" fill="white" transform="translate(0.836914)"/>
</clipPath>
</defs>
</svg>
