<svg width="15" height="15" viewBox="0 0 15 15" fill="none" xmlns="http://www.w3.org/2000/svg">
<g clip-path="url(#clip0_5331_10421)">
<path d="M14.2256 6.87582H10V2.50081H10.6562C11.1398 2.50125 11.6128 2.64164 12.0183 2.90504C12.4238 3.16845 12.7443 3.54359 12.9412 3.98519L14.2256 6.87582ZM15 9.41457V11.8758H0V4.37581C0 3.87853 0.197544 3.40162 0.549175 3.04999C0.900805 2.69836 1.37772 2.50081 1.875 2.50081H6.25L6.72312 0.607065C6.76632 0.433704 6.86626 0.279771 7.00703 0.169765C7.14781 0.0597584 7.32134 0 7.5 0C7.67866 0 7.85219 0.0597584 7.99297 0.169765C8.13374 0.279771 8.23368 0.433704 8.27688 0.607065L8.75 2.50081V8.12582H14.7669C14.9202 8.53823 14.9991 8.97458 15 9.41457ZM6.25 6.87582H5V5.62582H3.75V6.87582H2.5V8.12582H3.75V9.37582H5V8.12582H6.25V6.87582ZM1.91125 13.1258C1.88835 13.2284 1.87621 13.3332 1.875 13.4383C1.875 13.8527 2.03962 14.2501 2.33265 14.5432C2.62567 14.8362 3.0231 15.0008 3.4375 15.0008C3.8519 15.0008 4.24933 14.8362 4.54235 14.5432C4.83538 14.2501 5 13.8527 5 13.4383C4.99879 13.3332 4.98665 13.2284 4.96375 13.1258H1.91125ZM10.6613 13.1258C10.6384 13.2284 10.6262 13.3332 10.625 13.4383C10.625 13.8527 10.7896 14.2501 11.0826 14.5432C11.3757 14.8362 11.7731 15.0008 12.1875 15.0008C12.6019 15.0008 12.9993 14.8362 13.2924 14.5432C13.5854 14.2501 13.75 13.8527 13.75 13.4383C13.7488 13.3332 13.7366 13.2284 13.7137 13.1258H10.6613Z" fill="#9E55D7"/>
</g>
<defs>
<clipPath id="clip0_5331_10421">
<rect width="15" height="15" fill="white"/>
</clipPath>
</defs>
</svg>
